<mxfile host="app.diagrams.net" modified="2021-04-13T09:13:10.957Z" agent="5.0 (Macintosh; Intel Mac OS X 10_15_7) AppleWebKit/537.36 (KHTML, like Gecko) Chrome/89.0.4389.114 Safari/537.36" etag="fIuU7gFtkU8KK0W-7v01" version="14.5.10" type="github">
  <diagram id="bvwks_559V8CvDR7hhbY" name="Page-1">
    <mxGraphModel dx="780" dy="715" grid="1" gridSize="10" guides="1" tooltips="1" connect="1" arrows="1" fold="1" page="1" pageScale="1" pageWidth="827" pageHeight="1169" math="0" shadow="0">
      <root>
        <mxCell id="0" />
        <mxCell id="1" parent="0" />
        <mxCell id="sO-dRe6zBM51kwjC_LpY-1" value="&lt;font style=&quot;font-size: 17px&quot;&gt;checker&lt;/font&gt;" style="rounded=1;whiteSpace=wrap;html=1;strokeWidth=5;fontSize=14;" vertex="1" parent="1">
          <mxGeometry x="250" y="50" width="120" height="60" as="geometry" />
        </mxCell>
        <mxCell id="sO-dRe6zBM51kwjC_LpY-2" value="引数からstack a 作成する" style="ellipse;whiteSpace=wrap;html=1;fontSize=14;strokeWidth=2;" vertex="1" parent="1">
          <mxGeometry x="50" y="150" width="200" height="80" as="geometry" />
        </mxCell>
        <mxCell id="sO-dRe6zBM51kwjC_LpY-3" value="int 型の引数" style="rounded=0;whiteSpace=wrap;html=1;fontSize=14;strokeWidth=2;" vertex="1" parent="1">
          <mxGeometry x="500" y="50" width="120" height="60" as="geometry" />
        </mxCell>
        <mxCell id="sO-dRe6zBM51kwjC_LpY-6" value="" style="shape=flexArrow;endArrow=classic;html=1;fontSize=14;exitX=0;exitY=0.5;exitDx=0;exitDy=0;entryX=1;entryY=0.5;entryDx=0;entryDy=0;" edge="1" parent="1" source="sO-dRe6zBM51kwjC_LpY-3" target="sO-dRe6zBM51kwjC_LpY-1">
          <mxGeometry width="50" height="50" relative="1" as="geometry">
            <mxPoint x="330" y="340" as="sourcePoint" />
            <mxPoint x="380" y="290" as="targetPoint" />
          </mxGeometry>
        </mxCell>
        <mxCell id="sO-dRe6zBM51kwjC_LpY-7" value="" style="ellipse;whiteSpace=wrap;html=1;fontSize=14;strokeWidth=2;" vertex="1" parent="1">
          <mxGeometry x="50" y="270" width="200" height="80" as="geometry" />
        </mxCell>
      </root>
    </mxGraphModel>
  </diagram>
</mxfile>
